<svg xmlns="http://www.w3.org/2000/svg" viewBox="0 0 720 264" role="img"
     font-family="'Public Sans', system-ui, -apple-system, BlinkMacSystemFont, sans-serif"
     text-rendering="geometricPrecision">
  <title>Claim model: five configured stages</title>
  <desc>A Registry Notary claim evaluation moves through five configured stages in order. (1) Subject identifier: input from the caller, typed by the source connector. (2) Source connector: registry_data_api or dci, configured per binding. (3) Rule evaluation: one of extract, exists, cel, or plugin. (4) Disclosure mode: value, predicate, or redacted. (5) Response format: claim-result JSON, CCCEV JSON-LD, or SD-JWT VC.</desc>

  <text x="16" y="22" fill="#6a6a6a" font-size="11" font-weight="700" letter-spacing="0.08em">CLAIM MODEL · FIVE STAGES IN ORDER</text>
  <rect x="16" y="30" width="32" height="2" fill="#000091"/>

  <g fill="#000091" font-size="16" font-weight="700">
    <text x="16" y="68">1</text>
    <text x="16" y="112">2</text>
    <text x="16" y="156">3</text>
    <text x="16" y="200">4</text>
    <text x="16" y="244">5</text>
  </g>

  <g fill="#161616" font-size="14" font-weight="700">
    <text x="48" y="68">Subject identifier</text>
    <text x="48" y="112">Source connector</text>
    <text x="48" y="156">Rule evaluation</text>
    <text x="48" y="200">Disclosure mode</text>
    <text x="48" y="244">Response format</text>
  </g>

  <text x="248" y="68" fill="#3a3a3a" font-size="12.5">Input from the caller; type set by the source connector.</text>

  <g fill="#6a6a6a" font-size="11.5"
     font-family="'IBM Plex Mono', ui-monospace, SFMono-Regular, monospace">
    <text x="248" y="112">registry_data_api  |  dci</text>
    <text x="248" y="156">extract  |  exists  |  cel  |  plugin</text>
    <text x="248" y="200">value  |  predicate  |  redacted</text>
    <text x="248" y="244">claim-result JSON  |  CCCEV JSON-LD  |  SD-JWT VC</text>
  </g>

  <g stroke="#000091" stroke-width="1" fill="none">
    <line x1="22" y1="76" x2="22" y2="100"/>
    <polyline points="18,94 22,100 26,94"/>
    <line x1="22" y1="120" x2="22" y2="144"/>
    <polyline points="18,138 22,144 26,138"/>
    <line x1="22" y1="164" x2="22" y2="188"/>
    <polyline points="18,182 22,188 26,182"/>
    <line x1="22" y1="208" x2="22" y2="232"/>
    <polyline points="18,226 22,232 26,226"/>
  </g>
</svg>
