<svg xmlns="http://www.w3.org/2000/svg" viewBox="0 0 720 252" role="img"
     font-family="'Public Sans', system-ui, -apple-system, BlinkMacSystemFont, sans-serif"
     text-rendering="geometricPrecision">
  <title>Registry Relay request lifecycle</title>
  <desc>Registry Relay validates its manifest and binds runtime config once at startup; the process exits non-zero on any mismatch. Every authorized request then flows through four phases in order: Match scope (verify credential and require route scope), Query (project only declared fields, no raw SQL), Audit (write one JSONL record with names and operators only), and Respond (return projected fields, never storage identifiers).</desc>

  <text x="16" y="22" fill="#6a6a6a" font-size="11" font-weight="700" letter-spacing="0.08em">PRE-FLIGHT · ONCE</text>
  <rect x="16" y="30" width="32" height="2" fill="#000091"/>

  <text x="16" y="64" fill="#161616" font-size="14" font-weight="700">Bind</text>
  <g fill="#3a3a3a" font-size="12.5">
    <text x="80" y="64">Validate manifest. Bind datasets, entities, sources, columns, scopes, and</text>
    <text x="80" y="82">filters from config. Process exits non-zero on any manifest or binding error.</text>
  </g>

  <line x1="0" y1="108" x2="720" y2="108" stroke="#e5e5e5" stroke-width="1"/>

  <text x="16" y="130" fill="#6a6a6a" font-size="11" font-weight="700" letter-spacing="0.08em">PER REQUEST · FOUR PHASES IN ORDER</text>
  <rect x="16" y="138" width="32" height="2" fill="#000091"/>

  <g fill="#000091" font-size="16" font-weight="700">
    <text x="16" y="170">1</text>
    <text x="192" y="170">2</text>
    <text x="368" y="170">3</text>
    <text x="544" y="170">4</text>
  </g>

  <g fill="#161616" font-size="14" font-weight="700">
    <text x="16" y="194">Match scope</text>
    <text x="192" y="194">Query</text>
    <text x="368" y="194">Audit</text>
    <text x="544" y="194">Respond</text>
  </g>

  <g fill="#3a3a3a" font-size="12.5">
    <text x="16" y="218">Verify credential.</text>
    <text x="16" y="236">Require route scope.</text>
    <text x="192" y="218">Project declared fields</text>
    <text x="192" y="236">only. No raw SQL.</text>
    <text x="368" y="218">Write JSONL: names</text>
    <text x="368" y="236">and operators only.</text>
    <text x="544" y="218">Return projected</text>
    <text x="544" y="236">fields. No table IDs.</text>
  </g>

  <g stroke="#000091" stroke-width="1" fill="none">
    <line x1="170" y1="190" x2="186" y2="190"/>
    <polyline points="180,186 186,190 180,194"/>
    <line x1="346" y1="190" x2="362" y2="190"/>
    <polyline points="356,186 362,190 356,194"/>
    <line x1="522" y1="190" x2="538" y2="190"/>
    <polyline points="532,186 538,190 532,194"/>
  </g>
</svg>
