<svg xmlns="http://www.w3.org/2000/svg" viewBox="0 0 720 360" role="img" aria-labelledby="w-title w-desc" fill="none">
  <title id="w-title">Registry Notary: issuer of evidence in the three-party model</title>
  <desc id="w-desc">Registry Notary is the issuer in a three-party credential model. It evaluates configured claims against registry data and issues an SD-JWT VC. A wallet, the holder, stores the credential and presents it selectively. A verifier, the relying party, checks the signature and the presented fields. The credential is evidence; the verifier's program decides eligibility, not Notary.</desc>

  <style>
    .h { font: 600 13px 'Public Sans', system-ui, sans-serif; fill: #161616; }
    .m { font: 600 10.5px 'Public Sans', system-ui, sans-serif; fill: #6a6a6a; letter-spacing: 0.08em; }
    .c { font: 400 11px 'IBM Plex Mono', ui-monospace, monospace; fill: #6a6a6a; }
    .b { font: 400 12px 'Public Sans', system-ui, sans-serif; fill: #3a3a3a; }
    .a { font: 600 13px 'Public Sans', system-ui, sans-serif; fill: #000091; }
    .big { font: 700 18px 'Public Sans', system-ui, sans-serif; fill: #161616; }
    .bigblue { font: 700 18px 'Public Sans', system-ui, sans-serif; fill: #000091; }
  </style>

  <!-- Column captions -->
  <text x="24" y="40" class="m">REGISTRY WITNESS · ISSUER</text>
  <text x="260" y="40" class="m">WALLET · HOLDER</text>
  <text x="496" y="40" class="m">VERIFIER · RELYING PARTY</text>

  <!-- Notary box -->
  <rect x="24" y="60" width="200" height="140" fill="#ffffff" stroke="#161616" stroke-width="1"/>
  <rect x="24" y="60" width="4" height="140" fill="#000091"/>
  <text x="40" y="82" class="a">Registry Notary</text>
  <line x1="40" y1="96" x2="208" y2="96" stroke="#e5e5e5"/>
  <text x="40" y="118" class="b">reads source data</text>
  <text x="40" y="138" class="b">evaluates claims</text>
  <text x="40" y="158" class="b">applies disclosure policy</text>
  <text x="40" y="178" class="b">signs SD-JWT VC</text>

  <!-- Wallet box -->
  <rect x="260" y="60" width="200" height="140" fill="#ffffff" stroke="#161616" stroke-width="1"/>
  <text x="276" y="82" class="h">Wallet</text>
  <line x1="276" y1="96" x2="444" y2="96" stroke="#e5e5e5"/>
  <text x="276" y="118" class="b">stores the credential</text>
  <text x="276" y="138" class="b">presents selectively</text>
  <text x="276" y="158" class="b">proves key possession</text>

  <!-- Verifier box -->
  <rect x="496" y="60" width="200" height="140" fill="#ffffff" stroke="#161616" stroke-width="1"/>
  <text x="512" y="82" class="h">Verifier</text>
  <line x1="512" y1="96" x2="680" y2="96" stroke="#e5e5e5"/>
  <text x="512" y="118" class="b">checks issuer signature</text>
  <text x="512" y="138" class="b">reads presented fields</text>
  <text x="512" y="158" class="b">applies program policy</text>

  <!-- Arrows between boxes -->
  <line x1="224" y1="130" x2="252" y2="130" stroke="#161616"/>
  <polygon points="260,130 252,126 252,134" fill="#161616"/>

  <line x1="460" y1="130" x2="488" y2="130" stroke="#161616"/>
  <polygon points="496,130 488,126 488,134" fill="#161616"/>

  <!-- Separator before bottom callout -->
  <line x1="24" y1="232" x2="696" y2="232" stroke="#e5e5e5"/>

  <!-- Bottom: evidence -> decision boundary -->
  <text x="24" y="256" class="m">WHAT WITNESS PRODUCES</text>
  <text x="24" y="288" class="bigblue">Evidence</text>
  <text x="24" y="316" class="b">a signed receipt that</text>
  <text x="24" y="332" class="b">a claim was evaluated.</text>

  <text x="496" y="256" class="m">WHAT THE PROGRAM PRODUCES</text>
  <text x="496" y="288" class="big">Decision</text>
  <text x="496" y="316" class="b">whether the subject</text>
  <text x="496" y="332" class="b">qualifies for a benefit.</text>

  <!-- Boundary handoff arrow: evidence becomes input to a decision -->
  <line x1="200" y1="298" x2="478" y2="298" stroke="#000091" stroke-width="2" stroke-dasharray="6 4"/>
  <polygon points="488,298 478,293 478,303" fill="#000091"/>
</svg>
