<svg xmlns="http://www.w3.org/2000/svg" viewBox="0 0 720 328" role="img"
     font-family="'Public Sans', system-ui, -apple-system, BlinkMacSystemFont, sans-serif"
     text-rendering="geometricPrecision">
  <title>Registry Lab topology</title>
  <desc>The Registry Lab compose demo wires static manifest output and locally generated demo secrets into Registry Relay and Registry Witness, then exposes both services to Registry Atlas and a demo client. The smoke script verifies the running stack.</desc>

  <text x="16" y="22" fill="#6a6a6a" font-size="11" font-weight="700" letter-spacing="0.08em">REGISTRY LAB — COMPOSE TOPOLOGY</text>
  <rect x="16" y="30" width="32" height="2" fill="#000091"/>

  <rect x="16" y="48" width="688" height="240" fill="none" stroke="#161616" stroke-width="1"/>

  <g fill="#6a6a6a" font-size="11" font-weight="700" letter-spacing="0.08em">
    <text x="32" y="76">FIXTURES</text>
    <text x="280" y="76">SERVICES</text>
    <text x="528" y="76">CLIENTS</text>
  </g>
  <g fill="#000091">
    <rect x="32" y="84" width="24" height="2"/>
    <rect x="280" y="84" width="24" height="2"/>
    <rect x="528" y="84" width="24" height="2"/>
  </g>

  <text x="32" y="116" fill="#161616" font-size="13" font-weight="700">static metadata</text>
  <text x="32" y="134" fill="#3a3a3a" font-size="12">Manifest output</text>
  <text x="32" y="152" fill="#3a3a3a" font-size="12">published to a</text>
  <text x="32" y="170" fill="#3a3a3a" font-size="12">local directory.</text>

  <text x="32" y="210" fill="#161616" font-size="13" font-weight="700">demo secrets</text>
  <text x="32" y="228" fill="#3a3a3a" font-size="12">Generated locally;</text>
  <text x="32" y="246" fill="#3a3a3a" font-size="12">no production data</text>
  <text x="32" y="264" fill="#3a3a3a" font-size="12">or credentials.</text>

  <g stroke="#000091" stroke-width="1" fill="none">
    <line x1="216" y1="140" x2="268" y2="140"/>
    <polyline points="262,136 268,140 262,144"/>
    <line x1="216" y1="232" x2="268" y2="232"/>
    <polyline points="262,228 268,232 262,236"/>
  </g>

  <text x="280" y="116" fill="#161616" font-size="14" font-weight="700">Registry Relay</text>
  <text x="280" y="134" fill="#6a6a6a" font-size="11.5"
        font-family="'IBM Plex Mono', ui-monospace, SFMono-Regular, monospace">registry-relay</text>
  <text x="280" y="158" fill="#3a3a3a" font-size="12">Protected entity</text>
  <text x="280" y="176" fill="#3a3a3a" font-size="12">and metadata API.</text>

  <text x="280" y="210" fill="#161616" font-size="14" font-weight="700">Registry Witness</text>
  <text x="280" y="228" fill="#6a6a6a" font-size="11.5"
        font-family="'IBM Plex Mono', ui-monospace, SFMono-Regular, monospace">registry-witness</text>
  <text x="280" y="252" fill="#3a3a3a" font-size="12">Claim evaluation</text>
  <text x="280" y="270" fill="#3a3a3a" font-size="12">and credential issuance.</text>

  <g stroke="#000091" stroke-width="1" fill="none">
    <line x1="464" y1="140" x2="516" y2="140"/>
    <polyline points="510,136 516,140 510,144"/>
    <line x1="464" y1="232" x2="516" y2="232"/>
    <polyline points="510,228 516,232 510,236"/>
  </g>

  <text x="528" y="116" fill="#161616" font-size="13" font-weight="700">Registry Atlas</text>
  <text x="528" y="134" fill="#3a3a3a" font-size="12">Workbench UI that</text>
  <text x="528" y="152" fill="#3a3a3a" font-size="12">fetches the metadata</text>
  <text x="528" y="170" fill="#3a3a3a" font-size="12">endpoint.</text>

  <text x="528" y="210" fill="#161616" font-size="13" font-weight="700">demo client</text>
  <text x="528" y="228" fill="#6a6a6a" font-size="11.5"
        font-family="'IBM Plex Mono', ui-monospace, SFMono-Regular, monospace">scripts/smoke.sh</text>
  <text x="528" y="252" fill="#3a3a3a" font-size="12">Verifies service health</text>
  <text x="528" y="270" fill="#3a3a3a" font-size="12">and runs a demo call.</text>

  <text x="16" y="312" fill="#6a6a6a" font-size="12">All services run in one</text>
  <text x="160" y="312" fill="#6a6a6a" font-size="11.5"
        font-family="'IBM Plex Mono', ui-monospace, SFMono-Regular, monospace">docker compose</text>
  <text x="266" y="312" fill="#6a6a6a" font-size="12">stack with no production data or secrets.</text>
</svg>
