<svg xmlns="http://www.w3.org/2000/svg" viewBox="0 0 720 456" role="img"
     font-family="'Public Sans', system-ui, -apple-system, BlinkMacSystemFont, sans-serif"
     text-rendering="geometricPrecision">
  <title>Registry architecture flow</title>
  <desc>Registry Platform provides shared primitives to Relay and Witness. Registry Manifest produces portable metadata contracts. Registry Relay binds those contracts to protected runtime data sources and serves entity and metadata APIs. Registry Witness evaluates claims against configured sources and issues credentials. Registry Atlas inspects published discovery artifacts. Registry Lab runs runtime services together as a compose-based local demo.</desc>

  <g fill="#6a6a6a" font-size="11" font-weight="700" letter-spacing="0.08em">
    <text x="16" y="22">SHARED PRIMITIVES</text>
    <text x="16" y="142">CONTRACTS</text>
    <text x="240" y="142">RUNTIME</text>
    <text x="464" y="142">CLIENT</text>
  </g>
  <g fill="#000091">
    <rect x="16" y="30" width="32" height="2"/>
    <rect x="16" y="150" width="32" height="2"/>
    <rect x="240" y="150" width="32" height="2"/>
    <rect x="464" y="150" width="32" height="2"/>
  </g>

  <text x="16" y="64" fill="#161616" font-size="14" font-weight="700">Registry Platform</text>
  <text x="16" y="82" fill="#6a6a6a" font-size="11.5"
        font-family="'IBM Plex Mono', ui-monospace, SFMono-Regular, monospace">registry-platform</text>
  <g fill="#3a3a3a" font-size="12.5">
    <text x="16" y="112">Shared auth, OIDC, audit, HTTP, crypto,</text>
    <text x="16" y="130">SD-JWT, outbound HTTP, and test crates.</text>
  </g>

  <g stroke="#000091" stroke-width="1" fill="none">
    <line x1="208" y1="88" x2="236" y2="194"/>
    <polyline points="230,190 236,194 231,198"/>
    <line x1="208" y1="104" x2="236" y2="286"/>
    <polyline points="230,282 236,286 231,290"/>
  </g>

  <text x="16" y="184" fill="#161616" font-size="14" font-weight="700">Registry Manifest</text>
  <text x="16" y="202" fill="#6a6a6a" font-size="11.5"
        font-family="'IBM Plex Mono', ui-monospace, SFMono-Regular, monospace">registry-manifest</text>
  <g fill="#3a3a3a" font-size="12.5">
    <text x="16" y="232">Portable metadata</text>
    <text x="16" y="250">contracts and</text>
    <text x="16" y="268">renderers for DCAT,</text>
    <text x="16" y="286">SHACL, JSON Schema,</text>
    <text x="16" y="304">and OGC API Records.</text>
  </g>

  <g stroke="#000091" stroke-width="1" fill="none">
    <line x1="208" y1="232" x2="236" y2="232"/>
    <polyline points="230,228 236,232 230,236"/>
  </g>

  <text x="240" y="184" fill="#161616" font-size="14" font-weight="700">Registry Relay</text>
  <text x="240" y="202" fill="#6a6a6a" font-size="11.5"
        font-family="'IBM Plex Mono', ui-monospace, SFMono-Regular, monospace">registry-relay</text>
  <g fill="#3a3a3a" font-size="12.5">
    <text x="240" y="232">Binds manifests to CSV,</text>
    <text x="240" y="250">Parquet, and PostgreSQL</text>
    <text x="240" y="268">sources. Serves protected</text>
    <text x="240" y="286">entity and metadata APIs.</text>
  </g>

  <text x="240" y="324" fill="#161616" font-size="14" font-weight="700">Registry Witness</text>
  <text x="240" y="342" fill="#6a6a6a" font-size="11.5"
        font-family="'IBM Plex Mono', ui-monospace, SFMono-Regular, monospace">registry-witness</text>
  <g fill="#3a3a3a" font-size="12.5">
    <text x="240" y="372">Evaluates configured</text>
    <text x="240" y="390">claims against HTTP</text>
    <text x="240" y="408">sources. Issues SD-JWT</text>
    <text x="240" y="426">VCs and CCCEV evidence.</text>
  </g>

  <g stroke="#000091" stroke-width="1" fill="none">
    <line x1="432" y1="232" x2="460" y2="232"/>
    <polyline points="454,228 460,232 454,236"/>
    <line x1="432" y1="372" x2="460" y2="372"/>
    <polyline points="454,368 460,372 454,376"/>
  </g>

  <text x="464" y="184" fill="#161616" font-size="14" font-weight="700">Registry Atlas</text>
  <text x="464" y="202" fill="#6a6a6a" font-size="11.5"
        font-family="'IBM Plex Mono', ui-monospace, SFMono-Regular, monospace">registry-atlas</text>
  <g fill="#3a3a3a" font-size="12.5">
    <text x="464" y="232">Browser workbench</text>
    <text x="464" y="250">for published catalog,</text>
    <text x="464" y="268">schema, API, evidence,</text>
    <text x="464" y="286">and credential artifacts.</text>
  </g>

  <line x1="0" y1="438" x2="720" y2="438" stroke="#e5e5e5" stroke-width="1"/>
  <text x="464" y="426" fill="#6a6a6a" font-size="11" font-weight="700" letter-spacing="0.08em">DEMO: REGISTRY LAB</text>
  <text x="590" y="426" fill="#3a3a3a" font-size="12.5">Compose demo of the runtime family.</text>
</svg>
