<svg xmlns="http://www.w3.org/2000/svg" viewBox="0 0 864 232" role="img"
     font-family="'Public Sans', system-ui, -apple-system, BlinkMacSystemFont, sans-serif"
     text-rendering="geometricPrecision">
  <title>Registry family map</title>
  <desc>The six registry family projects, arranged left to right by structural role: Registry Platform provides shared primitives; Registry Manifest defines portable contracts; Registry Relay and Registry Notary are runtime services; Registry Atlas is the inspection client; Registry Lab is the compose-based runnable demo.</desc>

  <g stroke="#e5e5e5" stroke-width="1">
    <line x1="144" y1="16" x2="144" y2="216"/>
    <line x1="288" y1="16" x2="288" y2="216"/>
    <line x1="432" y1="16" x2="432" y2="216"/>
    <line x1="576" y1="16" x2="576" y2="216"/>
    <line x1="720" y1="16" x2="720" y2="216"/>
  </g>

  <g fill="#6a6a6a" font-size="11" font-weight="700" letter-spacing="0.08em">
    <text x="16" y="30">PLATFORM</text>
    <text x="160" y="30">CONTRACTS</text>
    <text x="304" y="30">RUNTIME</text>
    <text x="448" y="30">RUNTIME</text>
    <text x="592" y="30">CLIENT</text>
    <text x="736" y="30">DEMO</text>
  </g>

  <g fill="#000091">
    <rect x="16" y="38" width="32" height="2"/>
    <rect x="160" y="38" width="32" height="2"/>
    <rect x="304" y="38" width="32" height="2"/>
    <rect x="448" y="38" width="32" height="2"/>
    <rect x="592" y="38" width="32" height="2"/>
    <rect x="736" y="38" width="32" height="2"/>
  </g>

  <g fill="#000091" font-size="16" font-weight="700">
    <text x="16" y="76">1</text>
    <text x="160" y="76">2</text>
    <text x="304" y="76">3</text>
    <text x="448" y="76">4</text>
    <text x="592" y="76">5</text>
    <text x="736" y="76">6</text>
  </g>

  <g fill="#161616" font-size="13" font-weight="700">
    <text x="16" y="100">Registry Platform</text>
    <text x="160" y="100">Registry Manifest</text>
    <text x="304" y="100">Registry Relay</text>
    <text x="448" y="100">Registry Notary</text>
    <text x="592" y="100">Registry Atlas</text>
    <text x="736" y="100">Registry Lab</text>
  </g>

  <g fill="#6a6a6a" font-size="11.5"
     font-family="'IBM Plex Mono', ui-monospace, SFMono-Regular, monospace">
    <text x="16" y="118">registry-platform</text>
    <text x="160" y="118">registry-manifest</text>
    <text x="304" y="118">registry-relay</text>
    <text x="448" y="118">registry-notary</text>
    <text x="592" y="118">registry-atlas</text>
    <text x="736" y="118">registry-lab</text>
  </g>

  <g fill="#3a3a3a" font-size="12.5">
    <text x="16" y="150">Shared auth,</text>
    <text x="16" y="168">audit, HTTP,</text>
    <text x="16" y="186">crypto, and</text>
    <text x="16" y="204">test crates.</text>

    <text x="160" y="150">Portable metadata</text>
    <text x="160" y="168">contracts,</text>
    <text x="160" y="186">validation, and</text>
    <text x="160" y="204">renderers.</text>

    <text x="304" y="150">Protected gateway</text>
    <text x="304" y="168">over sensitive</text>
    <text x="304" y="186">registry sources.</text>

    <text x="448" y="150">Claim evaluation,</text>
    <text x="448" y="168">attestation, and</text>
    <text x="448" y="186">credential</text>
    <text x="448" y="204">issuance.</text>

    <text x="592" y="150">Workbench UI for</text>
    <text x="592" y="168">inspecting</text>
    <text x="592" y="186">registry discovery</text>
    <text x="592" y="204">artifacts.</text>

    <text x="736" y="150">Compose-based</text>
    <text x="736" y="168">runnable demo of</text>
    <text x="736" y="186">the family.</text>
  </g>
</svg>
